<?xml version="1.0" encoding="UTF-8"?> <svg xmlns="http://www.w3.org/2000/svg" xmlns:xlink="http://www.w3.org/1999/xlink" width="302" height="280" viewBox="0 0 302 280"><defs><path id="a" d="M.145.277h15.623V12.11H.145z"></path><linearGradient id="c" x1="50%" x2="50%" y1="0%" y2="127.57%"><stop offset="0%" stop-color="#673373"></stop><stop offset="100%" stop-color="#1E7135"></stop></linearGradient><linearGradient id="d" x1="50%" x2="50%" y1="0%" y2="127.57%"><stop offset="0%" stop-color="#1E7135"></stop><stop offset="100%" stop-color="#673373"></stop></linearGradient></defs><g fill="none" fill-rule="evenodd"><path fill="#D5BCDC" d="M74.288 72.463c-6.32 0-11.464 5.148-11.464 11.477v129.459c0 6.328 5.143 11.477 11.464 11.477h172.2c6.321 0 11.465-5.149 11.465-11.477V83.94c0-6.329-5.144-11.477-11.465-11.477h-172.2zm172.2 153.176h-172.2c-6.741 0-12.226-5.49-12.226-12.24V83.94c0-6.75 5.485-12.24 12.226-12.24h172.2c6.743 0 12.227 5.49 12.227 12.24v129.459c0 6.75-5.484 12.24-12.227 12.24z"></path><path fill="#4C041F" d="M283.58 90.772s3.141 1.42 4.545 1.912c1.403.492 6.542-.062 7.113.38.571.441.595 2.11-.231 2.402-.827.293-6.965 1.808-9.106 1.593-2.14-.217-5.907 1.23-6.806 1.041-.899-.187-.977-5.241-.788-6.406.19-1.166 5.272-.922 5.272-.922"></path><path fill="#FE8D23" d="M282.857 88.747l.722 2.025s-3.787 1.35-5.271.922l-.496-2.065 5.045-.882z"></path><path fill="#4C041F" d="M275.11 92.574s2.964 1.809 4.302 2.477c1.34.667 6.504.77 7.022 1.282.519.51.358 2.17-.495 2.355-.852.186-7.115.91-9.217.423-2.101-.487-6 .47-6.873.17-.872-.301-.392-5.33-.075-6.463.317-1.132 5.336-.244 5.336-.244"></path><path fill="#FE8D23" d="M274.667 90.469l.443 2.105s-3.909.86-5.337.244l-.264-2.113 5.158-.236z"></path><path fill="#560926" d="M244.968 52.57s13.51.118 15.168.353c1.795.255 8.824.481 9.673 1.771 8.568 13.017 14.161 34.332 14.161 34.332L277.2 90.36s-6.55-12.704-9.292-19.305c-2.462-5.925-4.57-7.448-9.742-7.318-5.172.131-21.712-1.01-31.25-2.193l18.053-8.975z"></path><path fill="#D683A3" d="M243.539 21.215s4.01 8.638 3.684 11.846c-.324 3.208-3.772 12.103-4.016 13.889-.244 1.787 1.501 5.32 1.501 5.32l-18.052 8.365s-.727-5.289 0-11.38c.727-6.091 1.264-12.637 2.067-16.08 2.738-11.746 9.982-16.615 9.982-16.615l4.834 4.655z"></path><path fill="#770D35" d="M244.708 52.27s13.511.12 15.168.353c1.796.255 8.984.377 9.674 1.772 4.909 9.925 6.011 36.418 6.011 36.418l-6.316.764s-2.687-13.523-4.076-19.85c-.737-3.357-3.533-7.428-7.363-7.204-5.164.304-25.427 5.315-31.15-3.888l18.052-8.365z"></path><path fill="#FE8D23" d="M233.041 29.374c.039-1.673 1.01-8.891 5.077-8.398 4.067.495 3.597 5.38 3.22 9.064-.394 3.855-2.392 13.307-1.756 13.793.636.486 5.46 1.938 6.499 2.145 1.037.208 7.292 1.744 7.806 1.888.503.14-.504 2.575-.504 2.575s-17.325-.508-20.223-1.882c-2.898-1.375-.119-19.185-.119-19.185"></path><path fill="#FE8D23" d="M253.887 47.866s1.287.325 1.908.373c.62.05 3.558-1.117 4.472-.948.914.168 6.793 3.009 7.055 3.208.264.199-.155.59-.155.59l-13.785-.498.505-2.725z"></path><path fill="#807066" d="M271.061 53.262l-22.921-.928.085-2.101 22.921.927z"></path><path fill="#807066" d="M278.822 31.649l-7.753 21.613-1.978-.71 7.753-21.614z"></path><path fill="#FE8D23" d="M254.051 7.612s.434 3.548-.527 3.696c-.793.123-.513 3.547-.513 4.088 0 .541-1.488.352-1.893.541-.406.19-2.713 3.574-3.872 3.25-1.158-.326-5.499-4.044-6.31-6.004-.812-1.96.58-8.833 2.555-11.188 1.974-2.356 9.776-.589 10.56 5.617"></path><path fill="#FE8D23" d="M245.012 16.675s-.117.31-.289.793c-.127.355-.284.804-.447 1.29-.44 1.32-.924 2.922-.96 3.704-.069 1.462-4.611-5.902-4.611-5.902s1.634-4.435 2.653-9.622c1.017-5.186 3.654 9.737 3.654 9.737"></path><g transform="translate(239.907)"><mask id="b" fill="#fff"><use xlink:href="#a"></use></mask><path fill="#7E3E8F" d="M14.211 8.371s2.848-2.532.84-6.024C13.042-1.146 6.038.857 5.368.777 4.699.694 1.205-.415.529 6.326c-.678 6.74-.251 5.73-.251 5.73s1.716-2.895 2.94-2.428c1.226.468 3.368.691 3.368.691s.04-3.147 1.806-2.904c1.765.244 4.425-.29 5.82.955" mask="url(#b)"></path></g><path fill="#D683A3" d="M232.732 29.688l9.286.336s1.442-9.673-3.895-9.488c-5.339.187-5.391 9.152-5.391 9.152"></path><path fill="#FE8D23" d="M245.39 8.076c.004-.432.176-2.23-1.581-1.823-1.758.407-.7 4.335-.474 4.47.227.133 2.013.989 2.054-2.647M238.705 16.56s7.968 14.416 7.761 12.372c-.162-1.597-3.613-9.313-3.613-9.313l-4.148-3.059z"></path><path fill="#A77860" d="M244.724 17.468c-.128.355-.284.804-.448 1.29-1.606-2-2.72-4.265-3.05-4.97.657 1.195 3.498 3.68 3.498 3.68"></path><path fill="#D683A3" d="M244.708 52.27l-17.75 10.732-.302-2.367z"></path><path fill="url(#c)" d="M196.235 45.561s2.336 18.04-10.685 31.891c-13.02 13.853-42.378 8.914-42.378 8.914s4.855-16.372 15.5-23.117c10.643-6.745 31.553-9.068 37.563-17.688"></path><path fill="url(#d)" d="M181.087 11.351s10.733 20.227 1.513 42.327c-9.22 22.099-46.01 29.29-46.01 29.29s-1.517-21.45 8.044-34.119c9.563-12.668 33.182-24.673 36.453-37.498"></path><path fill="#F1E8F1" d="M265.743 204.343c0 6.55-5.303 11.859-11.846 11.859H81.698c-6.543 0-11.846-5.309-11.846-11.859V74.885c0-6.55 5.303-11.859 11.846-11.859h172.2c6.542 0 11.845 5.309 11.845 11.859v129.458z"></path><path fill="#7E3E8F" d="M265.94 74.885v3.353H70.05v-3.353c0-6.55 5.302-11.859 11.845-11.859h172.2c6.542 0 11.845 5.309 11.845 11.859"></path><path fill="#D5BCDC" d="M92.106 122.312a4.578 4.578 0 0 1-4.575-4.58v-14.503c0-2.53 2.048-4.58 4.575-4.58h55.281a4.578 4.578 0 0 1 4.576 4.58v14.502c0 2.53-2.05 4.58-4.576 4.58H92.106zM92.106 130.454a4.2 4.2 0 0 0-4.194 4.198v14.504a4.2 4.2 0 0 0 4.194 4.198h55.281a4.2 4.2 0 0 0 4.194-4.198v-14.504a4.2 4.2 0 0 0-4.194-4.198H92.106zm55.281 23.663H92.106a4.964 4.964 0 0 1-4.956-4.961v-14.504a4.964 4.964 0 0 1 4.956-4.961h55.281a4.964 4.964 0 0 1 4.956 4.961v14.504a4.964 4.964 0 0 1-4.956 4.961zM217.744 165.313h-50.103a1.192 1.192 0 0 1-1.191-1.193v-1.432c0-.66.533-1.192 1.19-1.192h50.104c.658 0 1.192.533 1.192 1.192v1.432c0 .66-.534 1.193-1.192 1.193M217.744 179.18h-50.103a1.191 1.191 0 0 1-1.191-1.192v-1.432c0-.66.533-1.193 1.19-1.193h50.104c.658 0 1.192.534 1.192 1.193v1.432c0 .658-.534 1.191-1.192 1.191M172.963 99.03c-3.381 0-6.131 2.754-6.131 6.138v42.047c0 3.385 2.75 6.14 6.131 6.14h68.752c3.381 0 6.133-2.755 6.133-6.14v-42.047c0-3.384-2.752-6.138-6.133-6.138h-68.752zm68.752 55.087h-68.752c-3.802 0-6.894-3.096-6.894-6.902v-42.047c0-3.805 3.092-6.901 6.894-6.901h68.752c3.802 0 6.895 3.096 6.895 6.901v42.047c0 3.806-3.093 6.902-6.895 6.902z"></path><path fill="#7E3E8F" d="M238.771 166.516l-4.354-3.8a.858.858 0 0 1 1.127-1.294l3.079 2.687 4.392-4.904a.858.858 0 1 1 1.278 1.146l-5.522 6.165zM238.771 181.242l-4.354-3.8a.858.858 0 1 1 1.127-1.295l3.079 2.688 4.392-4.904a.858.858 0 1 1 1.278 1.146l-5.522 6.165z"></path><path fill="#D5BCDC" d="M217.744 193.905h-50.103a1.192 1.192 0 0 1-1.191-1.191v-1.432c0-.66.533-1.192 1.19-1.192h50.104c.658 0 1.192.533 1.192 1.192v1.432c0 .657-.534 1.191-1.192 1.191"></path><path fill="#7E3E8F" d="M238.771 195.968l-4.354-3.8a.86.86 0 0 1 1.127-1.295l3.079 2.688 4.392-4.905a.858.858 0 0 1 1.278 1.147l-5.522 6.165z"></path><path fill="#F1E8F1" d="M94.726 110.414a5.146 5.146 0 0 1 2.025-4.03 5.122 5.122 0 0 1 3.189-1.057 5.15 5.15 0 0 1 4.773 3.393l.002.003c.168.465.272.961.3 1.478h-.001a5.17 5.17 0 0 1-.218 1.78 5.143 5.143 0 0 1-1.301 2.16 5.123 5.123 0 0 1-4.791 1.356 5.078 5.078 0 0 1-.482-.134 5.156 5.156 0 0 1-3.496-4.95m12.013.156c.002-.115-.002-.23-.007-.343l-.001-.117a6.868 6.868 0 0 0-10.987-5.12 6.863 6.863 0 0 0-2.736 5.403 6.877 6.877 0 0 0 4.664 6.6v.001a6.86 6.86 0 0 0 2.114.36 6.852 6.852 0 0 0 5.517-2.663 6.841 6.841 0 0 0 1.436-4.121"></path><path fill="#7E3E8F" d="M282.795 151.357h-68.752a6.517 6.517 0 0 1-6.513-6.52V102.79a6.516 6.516 0 0 1 6.513-6.52h68.752a6.516 6.516 0 0 1 6.514 6.52v42.047c0 3.6-2.916 6.52-6.514 6.52"></path><path fill="#F1E8F1" d="M218.23 126.192a2.458 2.458 0 0 1-2.457-2.46v-18.42c0-1.358 1.099-2.459 2.457-2.459h22.561c1.357 0 2.457 1.1 2.457 2.46v18.419c0 1.358-1.1 2.46-2.457 2.46H218.23zM281.764 109.078h-32.477a1.44 1.44 0 0 1-1.44-1.441v-3.343c0-.796.645-1.441 1.44-1.441h32.477a1.44 1.44 0 0 1 1.439 1.44v3.344a1.44 1.44 0 0 1-1.44 1.441M281.764 118.816h-32.477a1.44 1.44 0 0 1-1.44-1.441v-3.343a1.44 1.44 0 0 1 1.44-1.441h32.477a1.44 1.44 0 0 1 1.439 1.44v3.344a1.44 1.44 0 0 1-1.44 1.441M281.895 143.819h-12.526a1.309 1.309 0 0 1-1.308-1.31v-.594c0-.723.585-1.31 1.308-1.31h12.526a1.31 1.31 0 0 1 1.308 1.31v.594c0 .723-.586 1.31-1.308 1.31"></path><path fill="#FE8D23" d="M273.571 164.746s-1.306-2.286.764-8.415c2.003-5.926 8.933-5.389 11.135-1.591 2.202 3.797 1.458 6.155-1.783 10.442-3.243 4.287-8.77 1.524-10.116-.436M290.053 273.079c.043.378 3.815-.223 3.815-.223l.306-2.996s-4.035-.031-4.506.324c0 0 .342 2.516.385 2.895z"></path><path fill="#4C041F" d="M290.013 272.758s-1.195 1.518-2.351 2.178c-1.156.661-2.971.923-3.656 1.607-.493.494-1.797 2.62 3.005 2.578 4.8-.043 7.114.3 7.628-.516.516-.814-.744-6.017-.744-6.017s-1.175.331-3.882.17"></path><path fill="#FE8D23" d="M263.55 270.184s.343 2.516.386 2.895c.043.378 3.815-.223 3.815-.223l.306-2.996s-4.035-.031-4.506.324"></path><path fill="#4C041F" d="M261.546 274.936c-1.156.661-5.41 1.204-6.093 1.887-.494.495-1.314 2.484 5.44 2.298 4.8-.133 7.116.3 7.63-.516.515-.814-.745-6.017-.745-6.017s-1.49.266-3.882.17c0 0-1.194 1.518-2.35 2.178z"></path><path fill="#9F3A60" d="M288.397 207.515s1.935 6.017 1.68 11.202c-.255 5.185 1 10.859 1.512 16.275.572 6.037 2.913 20.333 2.998 23.562.084 3.23-.364 13.543-.364 13.543l-4.684.114s-3.934-24.99-4.952-27.54c-1.02-2.55-6.072-20.728-6.243-22.768-.17-2.04 10.053-14.388 10.053-14.388"></path><path fill="#B94772" d="M268.976 206.89s-2.843 15.907-3.182 19.08c-.34 3.174-.567 15.358-.737 17.34-.17 1.984-1.132 25.955-2.037 28.9h5.223s5.362-17.425 5.362-25.67c0-8.244 3.55-17.923 5.844-23.363 2.291-5.44 7.54-5.568 8.949-15.662 0 0-17.513-3.827-19.422-.626"></path><path fill="#FE8D23" d="M275.466 166.365s.589 1.716 0 2.94c-.59 1.226 7.527.49 7.527.49s-.367-2.53.694-4.613c1.06-2.083-8.221 1.183-8.221 1.183"></path><path fill="#770D35" d="M288.774 208.827s-2.919 3.002-20.06-.468l.262-1.47 19.486.735.312 1.203z"></path><path fill="#FE8D23" d="M274.238 169.704s-2.999.306-3.855.47c-.857.163-6.622-1.033-7.805-1.155-1.183-.123-6.226-3.583-6.39-3.991-.163-.408-3.067-7.772-3.23-9.364-.163-1.593-2.83-.77-2.602.327.428 2.053.978 7.036 1.278 8.48.326 1.559 1.197 5.09 1.686 5.525.49.435 5.03 3.893 9.476 5.362 4.446 1.47 7.793 3.635 7.793 3.635h21.91s8.522-12.195 8.706-14.033c.183-1.837-5.953-14.048-7.176-15.58-1.224-1.53-2.994.5-2.994.5s3.667 10.77 4.156 12.3c.489 1.531-4.264 8.258-5.57 8.28-1.305.02-4.657-.409-6.145-.47-1.49-.061-3.059-.715-3.059-.715l-6.18.429z"></path><path fill="#770D35" d="M264.795 177.85s2.683 1.785 2.927 4.847c.244 3.063 1.223 7.9 1.713 9.554s-.428 13.659-.55 14.516c-.123.857 16.954 2.894 19.577.857 0 0 .733-11.208 1.04-14.393.305-3.184 1.773-10.901 2.263-11.943.49-1.041 6.424-9.374 6.669-10.473 0 0-3.07-4.899-5.273-4.96 0 0-3.498 4.103-4.639 4.286-1.14.184-8.13-1.098-8.132-1.109 0 0-.763 1.04-4.819-.185 0 0-4.83.546-5.616.647-.952.121-7.567-.832-7.567-.832s-2.653 4.486-2.188 6.751l4.595 2.437z"></path><path fill="#FE8D23" d="M253.11 156.62s-.599-2.837.123-3.653c.41-.464 1.397-1.692 1.487-1.873.091-.18 1.15-.788 1.15-1.083 0-.292-1.037-.653-1.938.182-.902.834-1.465 1.015-1.826.925-.36-.091-.879-3.091-.924-3.836-.046-.745-.332-2.707-.797-2.572-.465.136-.442.993-.442.993s-.541-1.49-.902-1.196c-.36.293-.316 1.015-.316 1.015s-.675-.834-.856-.226c-.18.61 0 1.151 0 1.151s-.699-.384-.744.563c-.044.948.204 3.724.7 4.716.494.993 2.351 3.59 2.572 4.604.221 1.014 2.713.29 2.713.29M291.632 151.636s-2.039-3.43-2.731-3.737c-.693-.306-1.673-.48-2.53-1.093-.856-.611-1.987-1.121-1.927-1.326.062-.204 1.071-.122 2.152.347 1.08.47 1.555.243 1.657-.002.102-.245-.576-1.974-.902-2.384-.327-.407-2.651-2.75-2.265-3.096.388-.347 1.897.94 2.142 1.205 0 0-1.203-2.532-.734-2.654.47-.122 1.346.775 1.346.775s-.102-2.163 2.224 1.348c0 0-.49-1.164.223-.776.714.388 1.408 2.572 1.632 3.675.224 1.103 1.241 4.615 2.11 5.461.867.848-2.397 2.257-2.397 2.257"></path><path fill="#7E3E8F" d="M280.328 164.488c-2.283-.79-2.454-4.788-2.948-4.314-1.009.966-1.96.299-2.34-.273 0 0 1.115-1.47.598-2.178-.517-.707-1.358-1.224-1.358-1.224s1.606-7.752 8.917-4.22c8.565 4.138.49 12.903.49 12.903s-1.075.094-3.359-.694z"></path><path fill="#FE8D23" d="M275.466 169.306l.258-1.12s4.665-.095 7.211.274l.268 1.34s-3.26 1.48-7.737-.494M276.617 159.194c.424-.705 1.99-1.181 2.175.816.142 1.548-2.801 3.24-2.828 1.796-.028-1.442.37-2.143.653-2.612"></path><path fill="#770D35" d="M253 155.976s-1.684.042-2.5.78c0 0-.053.469.135.839 0 0 1.46-.682 2.58-.81 0 0-.02-.613-.216-.81"></path><path fill="#7E3E8F" d="M251.015 156.397a.724.724 0 1 0 1.333.564.724.724 0 0 0-1.333-.564M113.807 156.777h-55.28a4.578 4.578 0 0 1-4.576-4.58v-14.503a4.58 4.58 0 0 1 4.575-4.581h55.281a4.579 4.579 0 0 1 4.576 4.581v14.503c0 2.53-2.048 4.58-4.576 4.58"></path><path fill="#FE8D23" d="M3.878 202.86s.255 1.385 1.032 1.59c.66.174 1.388.876 1.612 1.092.3.288 1.551.83 1.191 1.212-.36.383-2.105-.793-2.52-.967-.416-.173.18 1.75.012 2.188-.168.439-3.41 1.244-3.664-.124-.256-1.368.373-3 .28-3.231-.092-.231-.225-.988-.225-.988l2.282-.772z"></path><path fill="#FE8D23" d="M5.22 207.642s.505 4.242.302 4.552c-.203.311-.434.325-.498-.07-.064-.394-.606-4.084-.606-4.084s-.245 5.121-.356 5.411c-.064.172-.51.224-.564.016-.053-.208-.1-5.297-.1-5.297s-.238 4.781-.403 4.996c-.144.19-.566.135-.572-.22-.007-.357-.037-4.804-.037-4.804s-.392 3.467-.639 3.567c-.15.062-.534.126-.405-.767.129-.891.213-3.027.213-3.027l3.665-.273zM49.378 150.828s.696-1.3.933-2.338c.239-1.04 1.533-2.423 2.06-2.749.527-.328 4.35-3.07 4.792-3.07.442.001.185.851-.197 1.099-.383.248-3.487 2.67-3.487 2.67s3.863-2.67 4.266-2.596c.404.072.69.586.258 1.114 0 0 .88.58-.037 1.285l-1.826 1.412s1.074-.559.676.306c-.212.46-2.458 1.8-2.818 2.211-.36.41-3.192 1.791-3.192 1.791l-1.428-1.135zM26.742 269.686h.958s-.319-3.62.568-3.656c.886-.035 3.084 2.946 4.396 3.408 1.312.462 8.048.851 8.083-.391.036-1.24-2.588-1.738-3.403-2.093-.816-.355-4.787-4.225-5.495-4.686-.71-.461-1.88-2.803-1.88-2.803h-3.616s-.397 1.965-.625 3.553c-.085.587-.146 1.121-.155 1.487-.035 1.348 1.17 5.181 1.17 5.181M10.105 268.97h.798v-3.37c.664.056 2.898 2.173 3.59 2.786.69.612 1.64.585 4.551.77 2.912.185 3.187-1.56 2.726-2.154-.46-.594-1.95-.854-2.726-1.224-.775-.372-3.833-3.824-4.649-4.642-.815-.816-1.312-3.155-1.312-3.155l-3.403.296s.021 2.14-.366 3.936a7.622 7.622 0 0 1-.113.463c-.506 1.867.904 6.295.904 6.295M18.067 156.339s-1.661 3.508-.774 6.378c0 0-5.111-.699-5.264-1.297-.152-.598.64-5.977.05-7.628-.59-1.65 5.988 2.547 5.988 2.547"></path><path fill="#770D35" d="M18.188 161.554s2.958 1.272 4.309 1.662c1.35.393 4.122 1.924 3.528 6.892-.594 4.967-1.763 9.228-2.228 11.347-.467 2.119-.667 7.585-.353 10.27 0 0-7.404 1.263-15.832-1.149 0 0 1.844-4.406 1.89-5.577.045-1.172-4.277-11.154-4.4-12.69-.123-1.535-.65-8.307 1.752-9.62 2.402-1.314 4.255-.983 5.275-1.574 1.021-.592 4.674-.14 6.06.44"></path><path fill="#770D35" d="M18.174 169.28s-1.136-5.967 4.642-5.956c5.079.008 9.877-.956 10.681-1.404.806-.447 3.912-1.975 5.543-3.655 1.632-1.68 10.47-8.408 10.47-8.408l2.443 2.473s-9.324 10.137-10.827 11.124c-1.504.988-14.126 8.045-15.727 8.268-1.602.223-6.099 1.446-7.225-2.442M.018 187.716c-.174 2.1.97 16.609.97 16.609l4.108.474s-.291-14.328-.522-17.633c-.067-.976.157-2.467.508-4.084v-.001c.222-1.028.496-2.107.778-3.136.777-2.842 1.615-5.31 1.615-5.31s4.601-11.983-1.171-11.5c0 0-2.145 2.216-3.054 5.849-.908 3.634-1.946 9.079-1.986 11.248-.04 2.169-1.119 5.939-1.246 7.484"></path><path fill="#B94772" d="M22.453 191.607s1.326 3.139 1.443 3.932c.117.792 4.274 11.152 4.563 14.183.293 3.065 1.17 11.245 1.482 12.417.312 1.172-.702 6.402-.858 7.575-.156 1.17-.078 20.302 1.326 29.75 0 0-3.276 1.406-5.773 0 0 0-4.133-14.759-3.9-23.27.235-8.512 1.313-12.102-.006-15.54-1.32-3.435-9.041-13.743-9.821-14.836-.78-1.093-5.668-7.134-1.04-13.678 4.628-6.546 12.584-.533 12.584-.533"></path><path fill="#B94772" d="M6.484 219.561c.41 2.734-.021 6.326-.88 16.322-.858 9.994 1.502 22.098 1.502 22.098 2.964 1.015 6.377 0 6.377 0-.079-.703 0-24.364 0-26.472 0-2.109.605-4.501.76-6.922.107-1.649.873-4.69 1.735-7.793.259-.93.526-1.865.785-2.77l.428-1.49c1.215-4.217 2.849-20.5 2.849-20.5s-9.053-7.299-13.46-.427c-4.408 6.871-2.145 11.869-1.99 12.727.156.86 1.483 12.495 1.894 15.227"></path><path fill="#770D35" d="M24.025 179.325s-.804 12.937 1.602 20.217c0 0-9.56 1.595-21.755-2.519 0 0 3.355-8.696 3.239-10.054-.116-1.36-3.646-17.194-1.952-20.737 1.695-3.543 18.265 1.484 18.866 13.093"></path><path fill="#FE8D23" d="M16.217 141.916c2.185-.088 7.766.759 6.726 9.178s-4.075 7.69-7.084 6.572c-3.007-1.118-6.19-7.926-6.064-9.679.126-1.752.186-5.819 6.422-6.071"></path><path fill="#353A3D" d="M22.912 147.203s-2.668 2.94-5.177 3.507c0 0-2.134 3.247-5.494 3.87 0 0-6.544-7.241-.265-11.875 6.28-4.633 11.162 1.916 10.936 4.498"></path><path fill="#EEA886" d="M18.282 149.582c-.049-.468-1.004-1.483-1.87-.487-.865.994.397 3.551.942 3.59.544.04 1.113-1.328.928-3.103"></path><path fill="#8D3154" d="M10.237 204.877c.07.156 4.58 10.178 5.741 11.916.259-.93.525-1.864.785-2.77 0 0-6.375-8.925-6.526-9.146"></path><path fill="#40081D" d="M4.88 172.807s-.318 6.37.202 10.274c.222-1.028.496-2.107.779-3.136-.023-.146-.898-6.134-.98-7.138"></path><path fill="#7E3E8F" d="M14.534 141.37s-7.605-.174-6.463 12.908c.879 10.054-2.814 15.02-2.295 16.487.521 1.465 2.305 3.914 6.297 1.705 3.992-2.209 1.364-13.732 3.509-18.217 2.145-4.483 6.853-6.561 6.853-6.561s-.826-7.635-7.901-6.321"></path><path fill="#770D35" d="M24.796 167.86s1.736 6.208 2.15 7.676c.536 1.905-1.955 5.491-4.16 4.39-2.206-1.103 2.01-12.066 2.01-12.066"></path><path fill="#4C041F" d="M10.105 268.97h.798v-3.37c.664.056 2.898 2.173 3.59 2.786.69.612 1.64.585 4.551.77 2.912.185 3.187-1.56 2.726-2.154-.46-.594-1.95-.854-2.726-1.224-3.114.166-6.916-4.218-8.74-4.209-.97.004-.96.542-.99.644a7.622 7.622 0 0 1-.113.463c-.506 1.867.904 6.295.904 6.295M27.7 269.686s-.319-3.62.568-3.656c.886-.035 3.084 2.946 4.396 3.408 1.312.462 8.048.851 8.083-.391.036-1.24-2.588-1.738-3.403-2.093-2.778-.007-7.297-3.069-8.698-3.688-1.4-.622-2.918-.248-2.918-.248-.085.587-.146 1.121-.155 1.487-.035 1.348 1.17 5.181 1.17 5.181h.957z"></path><path fill="#7E3E8F" d="M82.987 194.627h5.864v-21.323h-5.864zM91.331 194.627h5.864v-23.474H91.33zM99.787 194.627h5.863V175.62h-5.863zM108.243 194.626h5.863V166.81h-5.863zM117.115 194.627h5.864v-25.046h-5.864zM126.108 194.627h5.863v-21.323h-5.863zM134.451 194.627h5.864v-23.474h-5.864zM142.907 194.627h5.864V175.62h-5.864z"></path><path fill="#F1E8F1" d="M61.947 144.402a5.143 5.143 0 0 1 2.025-4.03 5.117 5.117 0 0 1 3.19-1.057 5.15 5.15 0 0 1 4.773 3.394l.001.002c.169.466.272.963.3 1.478a5.182 5.182 0 0 1-1.519 3.94 5.13 5.13 0 0 1-4.793 1.356 5.041 5.041 0 0 1-.48-.134 5.155 5.155 0 0 1-3.497-4.949m12.007-.205c-.002-.033 0-.067-.002-.1a6.868 6.868 0 0 0-10.987-5.12 6.879 6.879 0 0 0 1.928 12.005 6.886 6.886 0 0 0 4.584-.066 6.885 6.885 0 0 0 3.047-2.239 6.834 6.834 0 0 0 1.43-4.48"></path></g></svg> 